<?xml version="1.0" encoding="utf-8"?>
<!-- Generator: Adobe Illustrator 24.1.3, SVG Export Plug-In . SVG Version: 6.00 Build 0)  -->
<svg version="1.1" id="Layer_1" xmlns="http://www.w3.org/2000/svg" xmlns:xlink="http://www.w3.org/1999/xlink" x="0px" y="0px"
	 viewBox="0 0 833 1364" style="enable-background:new 0 0 833 1364;" xml:space="preserve">
<style type="text/css">
	.st0{fill:#FFC425;}
	.st1{fill:#B5B500;}
</style>
<path id="airfoil" class="st0" d="M455.63,104.52c-31.05-2.9-55.59,7.36-57.46,8.17c-0.08,0.03-0.15,0.07-0.22,0.12
	c-25.66,17.04-41.92,35.46-52.51,51.32c-5.48,8.21-8.64,17.74-9.27,27.59c-3.95,61.92-27.35,323.26-135.6,388.11
	c-20.38,12.21-36.46,31.7-46.21,54.97c-41.43,98.83-68.56,305.34-56.38,515.88c2.69,46.55,8.43,120.93,51.99,137.71
	c16.36,6.3,34.52,5.86,50.94-0.26c46.78-17.44,158.32-41.65,240.51-41.12c79.48,0.51,187.81,23.91,233.94,41.12
	c17.57,6.55,37.08,6.49,54.25-1.04c42.87-18.81,47.6-72.25,49.99-136.4C788.52,911.6,647.02,122.4,455.63,104.52z"/>
<path class="st1" d="M38,898"/>
<path class="st1" d="M256,542"/>
</svg>
